<mxfile host="app.diagrams.net" modified="2024-04-11T08:10:16.019Z" agent="Mozilla/5.0 (Macintosh; Intel Mac OS X 10_15_7) AppleWebKit/537.36 (KHTML, like Gecko) Chrome/123.0.0.0 Safari/537.36" etag="5-cDd5MoClYZEqvMUXbd" version="24.0.6" type="github">
  <diagram id="C5RBs43oDa-KdzZeNtuy" name="Page-1">
    <mxGraphModel dx="1194" dy="640" grid="0" gridSize="10" guides="1" tooltips="1" connect="1" arrows="1" fold="1" page="1" pageScale="1" pageWidth="827" pageHeight="1169" math="0" shadow="0">
      <root>
        <mxCell id="WIyWlLk6GJQsqaUBKTNV-0" />
        <mxCell id="WIyWlLk6GJQsqaUBKTNV-1" parent="WIyWlLk6GJQsqaUBKTNV-0" />
        <mxCell id="GDiTxDJWtRrnVRO-vO4L-9" style="edgeStyle=orthogonalEdgeStyle;rounded=0;orthogonalLoop=1;jettySize=auto;html=1;exitX=0.5;exitY=1;exitDx=0;exitDy=0;entryX=0.5;entryY=1;entryDx=0;entryDy=0;" edge="1" parent="WIyWlLk6GJQsqaUBKTNV-1" source="WIyWlLk6GJQsqaUBKTNV-3" target="GDiTxDJWtRrnVRO-vO4L-5">
          <mxGeometry relative="1" as="geometry">
            <Array as="points">
              <mxPoint x="160" y="480" />
              <mxPoint x="490" y="480" />
            </Array>
          </mxGeometry>
        </mxCell>
        <mxCell id="GDiTxDJWtRrnVRO-vO4L-10" value="虚假关系/紧密客群接口请求" style="edgeLabel;html=1;align=center;verticalAlign=middle;resizable=0;points=[];" vertex="1" connectable="0" parent="GDiTxDJWtRrnVRO-vO4L-9">
          <mxGeometry x="0.0044" y="4" relative="1" as="geometry">
            <mxPoint as="offset" />
          </mxGeometry>
        </mxCell>
        <mxCell id="WIyWlLk6GJQsqaUBKTNV-3" value="NB新单" style="rounded=1;whiteSpace=wrap;html=1;fontSize=12;glass=0;strokeWidth=1;shadow=0;" parent="WIyWlLk6GJQsqaUBKTNV-1" vertex="1">
          <mxGeometry x="100" y="360" width="120" height="40" as="geometry" />
        </mxCell>
        <mxCell id="GDiTxDJWtRrnVRO-vO4L-3" value="POS保全" style="rounded=1;whiteSpace=wrap;html=1;fontSize=12;glass=0;strokeWidth=1;shadow=0;" vertex="1" parent="WIyWlLk6GJQsqaUBKTNV-1">
          <mxGeometry x="100" y="250" width="120" height="40" as="geometry" />
        </mxCell>
        <mxCell id="GDiTxDJWtRrnVRO-vO4L-19" style="edgeStyle=orthogonalEdgeStyle;rounded=0;orthogonalLoop=1;jettySize=auto;html=1;exitX=1;exitY=0.5;exitDx=0;exitDy=0;" edge="1" parent="WIyWlLk6GJQsqaUBKTNV-1" source="GDiTxDJWtRrnVRO-vO4L-5" target="GDiTxDJWtRrnVRO-vO4L-15">
          <mxGeometry relative="1" as="geometry" />
        </mxCell>
        <mxCell id="GDiTxDJWtRrnVRO-vO4L-5" value="" style="swimlane;startSize=0;" vertex="1" parent="WIyWlLk6GJQsqaUBKTNV-1">
          <mxGeometry x="400" y="200" width="180" height="240" as="geometry" />
        </mxCell>
        <mxCell id="GDiTxDJWtRrnVRO-vO4L-1" value="虚假关系" style="ellipse;whiteSpace=wrap;html=1;" vertex="1" parent="GDiTxDJWtRrnVRO-vO4L-5">
          <mxGeometry x="30" y="30" width="120" height="80" as="geometry" />
        </mxCell>
        <mxCell id="GDiTxDJWtRrnVRO-vO4L-2" value="紧密客群" style="ellipse;whiteSpace=wrap;html=1;" vertex="1" parent="GDiTxDJWtRrnVRO-vO4L-5">
          <mxGeometry x="30" y="140" width="120" height="80" as="geometry" />
        </mxCell>
        <mxCell id="GDiTxDJWtRrnVRO-vO4L-6" value="ECS Python" style="text;html=1;align=center;verticalAlign=middle;resizable=0;points=[];autosize=1;strokeColor=none;fillColor=none;" vertex="1" parent="GDiTxDJWtRrnVRO-vO4L-5">
          <mxGeometry x="10" width="90" height="30" as="geometry" />
        </mxCell>
        <mxCell id="GDiTxDJWtRrnVRO-vO4L-12" style="edgeStyle=orthogonalEdgeStyle;rounded=0;orthogonalLoop=1;jettySize=auto;html=1;exitX=0.5;exitY=0;exitDx=0;exitDy=0;entryX=0.889;entryY=0;entryDx=0;entryDy=0;entryPerimeter=0;" edge="1" parent="WIyWlLk6GJQsqaUBKTNV-1" source="GDiTxDJWtRrnVRO-vO4L-3" target="GDiTxDJWtRrnVRO-vO4L-6">
          <mxGeometry relative="1" as="geometry" />
        </mxCell>
        <mxCell id="GDiTxDJWtRrnVRO-vO4L-13" value="虚假关系接口请求" style="edgeLabel;html=1;align=center;verticalAlign=middle;resizable=0;points=[];" vertex="1" connectable="0" parent="GDiTxDJWtRrnVRO-vO4L-12">
          <mxGeometry x="-0.0333" y="4" relative="1" as="geometry">
            <mxPoint x="27" as="offset" />
          </mxGeometry>
        </mxCell>
        <mxCell id="GDiTxDJWtRrnVRO-vO4L-15" value="PolarDB" style="shape=cylinder3;whiteSpace=wrap;html=1;boundedLbl=1;backgroundOutline=1;size=15;" vertex="1" parent="WIyWlLk6GJQsqaUBKTNV-1">
          <mxGeometry x="690" y="380" width="90" height="130" as="geometry" />
        </mxCell>
        <mxCell id="GDiTxDJWtRrnVRO-vO4L-16" value="Nebula" style="shape=cylinder3;whiteSpace=wrap;html=1;boundedLbl=1;backgroundOutline=1;size=15;" vertex="1" parent="WIyWlLk6GJQsqaUBKTNV-1">
          <mxGeometry x="690" y="100" width="90" height="130" as="geometry" />
        </mxCell>
        <mxCell id="GDiTxDJWtRrnVRO-vO4L-17" style="edgeStyle=orthogonalEdgeStyle;rounded=0;orthogonalLoop=1;jettySize=auto;html=1;entryX=0;entryY=0.5;entryDx=0;entryDy=0;entryPerimeter=0;" edge="1" parent="WIyWlLk6GJQsqaUBKTNV-1" target="GDiTxDJWtRrnVRO-vO4L-16">
          <mxGeometry relative="1" as="geometry">
            <mxPoint x="581" y="290" as="sourcePoint" />
            <Array as="points">
              <mxPoint x="581" y="290" />
              <mxPoint x="635" y="290" />
              <mxPoint x="635" y="165" />
            </Array>
          </mxGeometry>
        </mxCell>
        <mxCell id="GDiTxDJWtRrnVRO-vO4L-22" value="历史数据查询" style="edgeLabel;html=1;align=center;verticalAlign=middle;resizable=0;points=[];" vertex="1" connectable="0" parent="GDiTxDJWtRrnVRO-vO4L-17">
          <mxGeometry x="0.1274" relative="1" as="geometry">
            <mxPoint y="18" as="offset" />
          </mxGeometry>
        </mxCell>
        <mxCell id="GDiTxDJWtRrnVRO-vO4L-24" style="edgeStyle=orthogonalEdgeStyle;rounded=0;orthogonalLoop=1;jettySize=auto;html=1;exitX=0;exitY=0.5;exitDx=0;exitDy=0;exitPerimeter=0;" edge="1" parent="WIyWlLk6GJQsqaUBKTNV-1" source="GDiTxDJWtRrnVRO-vO4L-16">
          <mxGeometry relative="1" as="geometry">
            <mxPoint x="582" y="290" as="targetPoint" />
            <Array as="points">
              <mxPoint x="635" y="165" />
              <mxPoint x="635" y="290" />
              <mxPoint x="582" y="290" />
            </Array>
          </mxGeometry>
        </mxCell>
        <mxCell id="GDiTxDJWtRrnVRO-vO4L-25" value="事中风险切片储存" style="edgeLabel;html=1;align=center;verticalAlign=middle;resizable=0;points=[];" vertex="1" connectable="0" parent="WIyWlLk6GJQsqaUBKTNV-1">
          <mxGeometry x="630" y="370" as="geometry" />
        </mxCell>
        <mxCell id="GDiTxDJWtRrnVRO-vO4L-26" value="" style="swimlane;startSize=0;" vertex="1" parent="WIyWlLk6GJQsqaUBKTNV-1">
          <mxGeometry x="50" y="80" width="770" height="460" as="geometry" />
        </mxCell>
        <mxCell id="GDiTxDJWtRrnVRO-vO4L-27" value="事中风控" style="text;html=1;align=center;verticalAlign=middle;resizable=0;points=[];autosize=1;strokeColor=none;fillColor=none;" vertex="1" parent="WIyWlLk6GJQsqaUBKTNV-1">
          <mxGeometry x="55" y="88" width="70" height="30" as="geometry" />
        </mxCell>
      </root>
    </mxGraphModel>
  </diagram>
</mxfile>
